<svg width="64" height="64" viewBox="0 0 64 64" fill="none" xmlns="http://www.w3.org/2000/svg">
  <defs>
    <linearGradient id="cbai-icon-grad" x1="0%" y1="0%" x2="100%" y2="100%">
      <stop offset="0%" stop-color="#5eead4" />
      <stop offset="50%" stop-color="#14b8a6" />
      <stop offset="100%" stop-color="#0d9488" />
    </linearGradient>
    <radialGradient id="cbai-icon-glow" cx="50%" cy="50%" r="50%">
      <stop offset="0%" stop-color="#14b8a6" stop-opacity="0.25" />
      <stop offset="100%" stop-color="#14b8a6" stop-opacity="0" />
    </radialGradient>
  </defs>
  <rect width="64" height="64" rx="14" fill="#050810" />
  <circle cx="32" cy="32" r="28" fill="url(#cbai-icon-glow)" />
  <circle cx="32" cy="32" r="26" stroke="url(#cbai-icon-grad)" stroke-width="2.5" />
  <circle cx="32" cy="32" r="17" stroke="url(#cbai-icon-grad)" stroke-width="1.2" opacity="0.75" />
  <ellipse cx="32" cy="32" rx="17" ry="6.5" stroke="#14b8a6" stroke-width="0.85" opacity="0.55" />
  <ellipse cx="32" cy="32" rx="6.5" ry="17" stroke="#0d9488" stroke-width="0.85" opacity="0.45" />
  <circle cx="32" cy="32" r="3.5" fill="url(#cbai-icon-grad)" />
  <circle cx="32" cy="13" r="2.2" fill="#5eead4" />
  <circle cx="51" cy="32" r="2" fill="#14b8a6" />
  <circle cx="32" cy="51" r="2" fill="#0d9488" />
  <circle cx="13" cy="32" r="2" fill="#5eead4" />
  <line x1="32" y1="13" x2="51" y2="32" stroke="#14b8a6" stroke-width="0.65" opacity="0.45" />
  <line x1="51" y1="32" x2="32" y2="51" stroke="#0d9488" stroke-width="0.65" opacity="0.4" />
  <line x1="32" y1="51" x2="13" y2="32" stroke="#0d9488" stroke-width="0.65" opacity="0.4" />
  <line x1="13" y1="32" x2="32" y2="13" stroke="#5eead4" stroke-width="0.65" opacity="0.45" />
</svg>
